<svg width="60" height="75" viewBox="0 0 60 75" fill="none" xmlns="http://www.w3.org/2000/svg">
<g clip-path="url(#clip0_295:3896)">
<path d="M18.3145 42.363C4.83701 33.5564 4.48124 16.9593 13.027 7.58031C15.1121 5.25618 17.6526 3.38533 20.4908 2.08384C23.329 0.782358 26.4044 0.0780031 29.5262 0.0144823C32.6479 -0.0490386 35.7494 0.52963 38.6382 1.71458C41.527 2.89954 44.1414 4.66549 46.3193 6.90288C55.1056 15.8246 55.8644 33.0856 41.95 42.2275C44.3921 43.8635 47.068 45.3267 49.3509 47.2506C57.0228 53.7235 60.332 62.1541 59.973 72.1089C59.9222 73.4638 59.0889 74.2801 57.795 74.5511C57.1806 74.6405 56.5588 74.6689 55.9388 74.6357H4.13244C0.653838 74.6357 -0.006723 74.0735 5.1298e-05 70.6829C0.0271485 58.2521 5.7108 49.1948 16.526 43.247C17.0679 42.9354 17.6371 42.6915 18.3145 42.363ZM54.557 69.1723C54.706 61.8763 52.1352 55.9217 46.858 51.156C41.5233 46.3395 35.0808 45.154 28.1405 45.4487C18.5854 45.8551 11.6552 50.2618 7.43822 58.8211C5.80959 62.0128 5.14469 65.6093 5.52451 69.1723H54.557ZM12.6172 22.7175C12.6331 25.0185 13.1029 27.2938 13.9993 29.4132C14.8958 31.5325 16.2013 33.4541 17.8415 35.0681C19.4816 36.6822 21.424 37.9568 23.5575 38.8192C25.6909 39.6815 27.9734 40.1146 30.2744 40.0936C39.6127 39.975 47.5083 31.9034 47.3558 22.6396C47.304 18.0191 45.4263 13.6068 42.1327 10.3659C38.8391 7.12504 34.3972 5.31875 29.7766 5.3414C20.4517 5.3956 12.5257 13.4164 12.6172 22.7175Z" fill="black"/>
</g>
<defs>
<clipPath id="clip0_295:3896">
<rect width="60" height="74.6223" fill="white"/>
</clipPath>
</defs>
</svg>
