<svg width="60" height="70" viewBox="0 0 60 70" fill="none" xmlns="http://www.w3.org/2000/svg">
<g clip-path="url(#clip0_295:3884)">
<path d="M55.0214 65.0126C56.3403 65.0126 57.5373 65.0048 58.7328 65.0126C59.6438 65.0126 59.9829 65.3705 59.9923 66.3096C60.0027 67.0649 60.0027 67.8202 59.9923 68.5755C59.9751 69.6584 59.6641 69.9819 58.5859 69.9819C53.2478 69.9902 47.9098 69.9928 42.5717 69.9897H1.87061C1.58471 70.0027 1.29828 70.0001 1.01267 69.9819C0.387606 69.9131 0.0125757 69.5647 0.00632509 68.9099C-0.00148822 67.9723 -0.00772972 67.0347 0.0157102 66.0971C0.0344622 65.3611 0.392275 65.022 1.15017 65.0126C2.4003 64.997 3.65046 65.0126 5.00997 65.0126V63.9969C5.00997 43.5552 5.00997 23.114 5.00997 2.67332C5.00997 0.846568 5.8663 0.00585938 7.68993 0.00585938H37.2977C39.1729 0.00585938 40.0058 0.840319 40.0105 2.72333C40.0183 5.22359 40.0105 7.72385 40.0105 10.3069C40.323 10.3226 40.6027 10.3476 40.8762 10.3476C44.6516 10.3476 48.427 10.3476 52.2024 10.3476C54.1635 10.3476 55.0152 11.1836 55.0152 13.1385V65.0189L55.0214 65.0126ZM35.01 33.8438C35.01 24.7574 35.01 15.67 35.01 6.58154C35.01 5.27203 34.7615 5.01888 33.4801 5.01888C26.1877 5.01888 18.8953 5.01888 11.6028 5.01888C10.248 5.01888 10.0042 5.26265 10.0042 6.60029C10.0042 24.748 10.0042 42.8957 10.0042 61.0435C10.0042 62.2186 10.2996 62.503 11.4856 62.503H33.4364C34.7115 62.503 34.9912 62.2295 34.9991 60.9528L35.01 33.8438ZM40.0496 62.4405C40.1693 62.4643 40.2903 62.481 40.4121 62.4905C43.1999 62.4905 45.9861 62.4999 48.7723 62.4905C49.7099 62.4905 50.0224 62.1295 50.0224 61.106C50.0224 46.3388 50.0224 31.5722 50.0224 16.806C50.0224 15.6809 49.71 15.3637 48.5848 15.3606C46.0846 15.3512 43.5843 15.3606 41.0841 15.3606H40.073V19.9345C40.1337 19.9635 40.1977 19.9851 40.2637 19.9986C41.3304 19.9986 42.3977 20.0012 43.4655 20.0064C44.7969 20.0064 45.0376 20.2564 45.0282 21.6144C45.0282 22.1097 45.0282 22.6051 45.0282 23.0989C45.0282 24.921 44.9266 25.021 43.0686 25.0194H40.0824V29.9293C40.1451 29.9587 40.2113 29.9802 40.2793 29.9934C41.4513 29.9934 42.6233 29.9934 43.7937 30.0152C44.675 30.0262 45.0157 30.3637 45.0313 31.2482C45.0454 32.0545 45.0391 32.8624 45.0313 33.6703C45.0235 34.6907 44.7032 35.0079 43.6671 35.0126C42.4779 35.0126 41.2887 35.0126 40.0886 35.0126V40.0131C41.3731 40.0131 42.5967 40.0038 43.8187 40.0131C44.6657 40.0131 45.0063 40.3554 45.0235 41.1898C45.0392 41.9977 45.0235 42.8056 45.0235 43.612C45.0235 44.7058 44.7235 45.0184 43.6531 45.0184C42.4639 45.0184 41.2747 45.0184 40.0824 45.0184V49.9579C40.1518 49.9789 40.2229 49.9941 40.2949 50.0032H43.1858C44.8766 50.0032 45.0267 50.1486 45.0267 51.8034C45.0267 52.3254 45.0267 52.8457 45.0267 53.3661C45.0267 54.8069 44.8141 55.01 43.3389 55.01H40.0573L40.0496 62.4405Z" fill="black"/>
<path d="M25.0088 12.4469C24.976 9.99818 24.9791 9.96693 27.4606 9.99974C27.9294 9.99974 28.3982 9.99974 28.867 9.99974C29.5592 9.99974 29.9608 10.3638 29.978 11.0405C30.0103 12.0031 30.0103 12.9662 29.978 13.9298C29.9577 14.5674 29.5733 14.944 28.9311 14.9643C27.9935 14.9935 27.0559 14.9971 26.1183 14.9753C25.4088 14.9596 25.0119 14.5846 25.0072 13.8486C25.0088 13.3829 25.0088 12.9157 25.0088 12.4469Z" fill="black"/>
<path d="M15.0078 22.4697C15.0078 22.079 15.0078 21.6883 15.0078 21.2977C15.0234 20.3476 15.3359 20.0225 16.2579 20.01C17.0908 19.9991 17.9237 19.9944 18.7582 20.01C19.5926 20.0257 19.9614 20.3632 19.9801 21.182C19.9989 22.0665 19.9973 22.9525 19.9708 23.8386C19.9473 24.6199 19.5801 24.9699 18.7941 24.9887C17.9346 25.0074 17.0752 25.0012 16.2173 24.9887C15.3594 24.9762 15.0156 24.6199 15.0015 23.7386C14.9937 23.3229 15.0015 22.9057 15.0015 22.4884L15.0078 22.4697Z" fill="black"/>
<path d="M15.0079 52.4736C15.0079 52.0829 15.0079 51.6923 15.0079 51.3016C15.0204 50.3546 15.3376 50.0233 16.258 50.0108C17.0909 50.0015 17.9238 49.9968 18.7583 50.0108C19.5927 50.0249 19.9615 50.3593 19.9819 51.1813C20.0016 52.0657 19.9985 52.9512 19.9725 53.8378C19.9475 54.6191 19.5896 54.9613 18.7911 54.9817C17.9337 55.0035 17.0748 55.0035 16.2143 54.9817C15.3455 54.9645 15.0173 54.6098 15.0032 53.719C14.9954 53.3034 15.0032 52.8861 15.0032 52.4689L15.0079 52.4736Z" fill="black"/>
<path d="M17.4925 30.0089C17.9097 30.0089 18.3254 30.0089 18.7426 30.0089C19.588 30.0246 19.9536 30.3465 19.9802 31.1684C20.0099 32.0513 20.0083 32.9389 19.9802 33.825C19.9583 34.5969 19.5848 34.9548 18.802 34.9767C17.9175 34.9985 17.0315 35.0063 16.1454 34.9767C15.3641 34.9548 15.0234 34.5954 15.0094 33.8015C14.9953 32.9436 15 32.0826 15.0094 31.2247C15.0187 30.3668 15.3516 30.0168 16.2423 29.9996C16.658 29.9918 17.0752 29.9996 17.4925 29.9996V30.0089Z" fill="black"/>
<path d="M27.5404 30.009C29.9891 30.0012 29.989 30.0012 29.989 32.4562C29.989 34.9939 29.989 34.9939 27.4512 34.9892C25.0057 34.9892 25.0057 34.9892 25.0057 32.5202C25.0057 32.0514 24.9916 31.5826 25.0135 31.1138C25.0463 30.37 25.3885 30.0372 26.1355 30.0106C26.6027 29.9965 27.0731 30.009 27.5404 30.009Z" fill="black"/>
<path d="M15.0077 42.496C15.0077 42.0006 14.989 41.5052 15.0077 41.013C15.0374 40.3989 15.3906 40.041 15.9969 40.0223C16.9861 39.9926 17.9752 39.9926 18.966 40.0223C19.6317 40.0363 19.9504 40.4598 19.9692 41.0864C19.9973 42.024 20.0005 42.9616 19.9786 43.8992C19.9645 44.5759 19.5832 44.9728 18.9035 44.9931C17.9659 45.0181 17.0283 45.0181 16.0907 44.9931C15.3766 44.9712 14.9968 44.5743 14.9968 43.843C14.9968 43.4007 14.9968 42.9585 14.9968 42.5163L15.0077 42.496Z" fill="black"/>
<path d="M29.986 42.4905C29.986 42.9593 30.0063 43.4281 29.986 43.8969C29.9501 44.5735 29.5751 44.958 28.8922 44.9752C27.9827 45.0002 27.0701 45.0064 26.159 44.9845C25.3777 44.9658 25.0214 44.5986 25.0121 43.8188C24.9996 42.9343 24.9996 42.0483 25.0121 41.1623C25.0277 40.3637 25.3668 40.0231 26.1575 40.009C27.0154 39.9934 27.8764 40.0012 28.7343 40.009C29.6188 40.0215 29.9563 40.3575 29.9844 41.2373C29.9954 41.6561 29.986 42.0733 29.986 42.4905Z" fill="black"/>
<path d="M17.4893 10.0082C17.9316 10.0082 18.3739 9.99722 18.8161 10.0082C19.5974 10.0316 19.9537 10.3723 19.9756 11.163C20.0006 12.0459 20.0052 12.9319 19.9834 13.8195C19.9646 14.6008 19.6005 14.9618 18.8176 14.9805C17.9331 15.0024 17.0487 14.9977 16.1611 14.9727C15.3798 14.9509 15.0266 14.5946 15.011 13.8086C14.9954 12.9501 14.9954 12.0912 15.011 11.2317C15.0204 10.3504 15.3579 10.0207 16.2423 10.0035C16.6596 9.99566 17.0752 10.0035 17.4925 10.0035L17.4893 10.0082Z" fill="black"/>
<path d="M25.0087 22.4397C24.9431 20.0097 24.99 19.9394 27.4512 20.0066C27.92 20.0191 28.3888 20.0066 28.8576 20.0066C29.5514 20.0066 29.9514 20.377 29.9717 21.0473C30.0108 22.0084 29.9999 22.9725 29.9717 23.9351C29.953 24.5836 29.5624 24.9446 28.9248 24.9649C27.9872 24.9941 27.0496 24.9977 26.112 24.9759C25.3994 24.9602 25.0182 24.5727 25.0072 23.8414C25.0088 23.3773 25.0087 22.9085 25.0087 22.4397Z" fill="black"/>
<path d="M27.5089 50.0097C27.8996 50.0097 28.2903 50.0097 28.6809 50.0097C29.6185 50.0222 29.9686 50.3535 29.9858 51.2598C29.9998 52.0927 29.9998 52.9256 29.9858 53.7601C29.9717 54.5946 29.6248 54.9634 28.8044 54.9821C27.9199 55.0009 27.0339 55.0009 26.1479 54.9727C25.3665 54.9477 25.0321 54.5852 25.0181 53.7898C25.0024 52.9303 25.0024 52.0709 25.0181 51.2114C25.029 50.3379 25.3697 50.0175 26.2682 50.0035C26.6839 49.9957 27.1011 50.0035 27.5183 50.0035L27.5089 50.0097Z" fill="black"/>
</g>
<defs>
<clipPath id="clip0_295:3884">
<rect width="60" height="69.9979" fill="white"/>
</clipPath>
</defs>
</svg>
