<svg width="45" height="48" viewBox="0 0 45 48" fill="none" xmlns="http://www.w3.org/2000/svg">
<path fill-rule="evenodd" clip-rule="evenodd" d="M15 0C16.3807 0 17.5 1.11929 17.5 2.5V5H27.5V2.5C27.5 1.11929 28.6193 0 30 0C31.3807 0 32.5 1.11929 32.5 2.5V5H40C42.7614 5 45 7.23858 45 10V42.5C45 45.2614 42.7614 47.5 40 47.5H5C2.23858 47.5 0 45.2614 0 42.5V10C0 7.23858 2.23858 5 5 5H12.5V2.5C12.5 1.11929 13.6193 0 15 0ZM12.5 10H5V17.5H40V10H32.5V12.5C32.5 13.8807 31.3807 15 30 15C28.6193 15 27.5 13.8807 27.5 12.5V10H17.5V12.5C17.5 13.8807 16.3807 15 15 15C13.6193 15 12.5 13.8807 12.5 12.5V10ZM40 22.5H5V42.5H40V22.5Z" fill="white"/>
</svg>
