<svg width="54" height="60" viewBox="0 0 54 60" fill="none" xmlns="http://www.w3.org/2000/svg">
<path d="M12.4167 47.4987H41.5833V41.6654H12.4167V47.4987Z" fill="#F07525"/>
<path d="M41.5833 35.832H12.4167V29.9987H41.5833V35.832Z" fill="#F07525"/>
<path d="M12.4167 24.1654H24.0833V18.332H12.4167V24.1654Z" fill="#F07525"/>
<path fill-rule="evenodd" clip-rule="evenodd" d="M9.5 0.832031C4.66751 0.832031 0.75 4.74954 0.75 9.58203V50.4154C0.75 55.2479 4.66751 59.1654 9.5 59.1654H44.5C49.3325 59.1654 53.25 55.2479 53.25 50.4154V21.2487C53.25 9.97289 44.1091 0.832031 32.8333 0.832031H9.5ZM9.5 6.66537H29.9167V21.2487H47.4167V50.4154C47.4167 52.0262 46.1108 53.332 44.5 53.332H9.5C7.88917 53.332 6.58333 52.0262 6.58333 50.4154V9.58203C6.58333 7.9712 7.88917 6.66537 9.5 6.66537ZM35.75 6.95709C40.4497 7.91108 44.3287 11.1251 46.2032 15.4154H35.75V6.95709Z" fill="#F07525"/>
</svg>
