<svg width="70" height="70" viewBox="0 0 70 70" fill="none" xmlns="http://www.w3.org/2000/svg">
<path d="M20.4167 52.4987H49.5833V46.6654H20.4167V52.4987Z" fill="#25A4D8"/>
<path d="M49.5833 40.832H20.4167V34.9987H49.5833V40.832Z" fill="#25A4D8"/>
<path d="M20.4167 29.1654H32.0833V23.332H20.4167V29.1654Z" fill="#25A4D8"/>
<path fill-rule="evenodd" clip-rule="evenodd" d="M17.5 5.83203C12.6675 5.83203 8.75 9.74954 8.75 14.582V55.4154C8.75 60.2479 12.6675 64.1654 17.5 64.1654H52.5C57.3325 64.1654 61.25 60.2479 61.25 55.4154V26.2487C61.25 14.9729 52.1091 5.83203 40.8333 5.83203H17.5ZM17.5 11.6654H37.9167V26.2487H55.4167V55.4154C55.4167 57.0262 54.1108 58.332 52.5 58.332H17.5C15.8892 58.332 14.5833 57.0262 14.5833 55.4154V14.582C14.5833 12.9712 15.8892 11.6654 17.5 11.6654ZM43.75 11.9571C48.4497 12.9111 52.3287 16.1251 54.2032 20.4154H43.75V11.9571Z" fill="#25A4D8"/>
</svg>
