<svg width="100" height="100" viewBox="0 0 100 100" fill="none" xmlns="http://www.w3.org/2000/svg">
<rect width="100" height="100" rx="16" fill="#25A4D8"/>
<g clip-path="url(#clip0_2746_765)">
<path d="M82.0015 29.4999V70.4953C81.5368 71.6226 80.7039 72.0146 79.4965 72.0109C71.2475 71.9783 62.9986 71.9933 54.7496 71.9933H53.9981C53.9981 73.9973 53.9981 75.9149 53.9981 77.8287C53.9981 79.3179 52.8922 80.2185 51.4393 79.9404C49.1339 79.4995 46.8272 79.0624 44.5193 78.629C36.2695 77.0818 28.0197 75.537 19.7699 73.9948C18.6427 73.7819 18.0039 73.0091 18.0039 71.8518C18.0039 57.2928 18.0039 42.7342 18.0039 28.176C18.0039 26.9786 18.6301 26.2271 19.8087 26.0054C22.7688 25.4477 25.7297 24.892 28.6914 24.3384C35.0616 23.1435 41.4323 21.9482 47.8033 20.7525C48.9994 20.527 50.183 20.2515 51.3767 20.001H52.5039C53.6462 20.4844 54.072 21.3424 54.0194 22.5736C53.9505 24.173 54.0019 25.7775 54.0019 27.3794V28.0057H54.8386C63.0587 28.0057 71.2788 28.0195 79.499 27.9907C80.6989 27.9819 81.538 28.3776 82.0015 29.4999ZM54.0282 59.9994H54.8135C60.4798 59.9994 66.1465 59.9994 71.8136 59.9994C72.7405 59.9994 73.4419 60.3501 73.8302 61.1905C74.4564 62.5332 73.4644 63.9937 71.9314 63.9962C66.2025 64.0037 60.4735 64.0037 54.7446 63.9962H54.0307V67.9628H77.9597V32.0487H54.037V36.0066H54.8085C60.4548 36.0066 66.0998 35.9979 71.746 36.0217C72.2389 36.0271 72.7226 36.1563 73.1526 36.3974C73.9041 36.8333 74.1734 37.7751 73.9166 38.5855C73.6373 39.4735 72.9146 40.0008 71.9414 40.0021C66.2125 40.0021 60.4836 40.0021 54.7546 40.0021H54.052V44.0101H54.8523C60.4773 44.0101 66.1023 44.0025 71.7272 44.0263C72.2203 44.0294 72.7051 44.1537 73.1388 44.3883C73.8903 44.8142 74.1721 45.7573 73.9229 46.5702C73.6511 47.4594 72.9271 48.0017 71.9602 48.003C66.2313 48.008 60.5019 48.008 54.7722 48.003H54.0457V52.011H56.2101C61.4179 52.011 66.6262 52.011 71.835 52.011C72.7355 52.011 73.4193 52.3554 73.8139 53.1633C74.4765 54.5185 73.482 56.0065 71.9164 56.009C66.2075 56.0157 60.499 56.0157 54.791 56.009H54.0307L54.0282 59.9994ZM30.9409 51.7542L30.837 51.7442C30.7693 51.2996 30.7004 50.8537 30.6341 50.4091C30.3836 48.7646 30.1944 47.1113 29.8826 45.4805C29.6834 44.451 28.6163 43.8372 27.6544 44.0439C26.5747 44.2768 25.8758 45.2225 26.0261 46.2883C26.6799 50.8988 27.3237 55.5117 28.0301 60.1147C28.1282 60.6611 28.4065 61.1589 28.8204 61.5287C29.9402 62.4681 31.4019 61.9245 31.973 60.414C33.238 57.0724 34.4855 53.7244 35.7417 50.3802C35.8081 50.2011 35.8933 50.0283 36.0136 49.754C36.1626 50.1222 36.264 50.3665 36.3617 50.6157C37.603 53.9211 38.8354 57.2302 40.0892 60.5317C40.4649 61.525 41.3304 62.0961 42.1796 61.9859C42.6499 61.9299 43.0868 61.7141 43.4172 61.3747C43.7475 61.0352 43.9513 60.5926 43.9945 60.1209C44.3063 57.4756 44.5881 54.8279 44.8812 52.1826C45.2407 48.9361 45.5901 45.6897 45.9659 42.4457C46.1087 41.2208 45.426 40.215 44.255 40.0259C43.2254 39.8593 42.1796 40.6822 42.0193 41.8232C41.9028 42.6461 41.8376 43.4765 41.7462 44.3044C41.4957 46.6115 41.234 48.9174 40.9559 51.4198C40.8018 51.0704 40.7142 50.8938 40.6453 50.7097C39.7669 48.3759 38.8901 46.0425 38.015 43.7095C37.608 42.6273 36.9893 42.1451 36.0111 42.1376C35.0329 42.1301 34.3966 42.6211 33.9945 43.6907C33.0501 46.1957 32.107 48.7036 31.1651 51.2144C31.0925 51.3948 31.0148 51.5739 30.9409 51.7542V51.7542Z" fill="white"/>
</g>
<defs>
<clipPath id="clip0_2746_765">
<rect width="64" height="59.9908" fill="white" transform="translate(18 20)"/>
</clipPath>
</defs>
</svg>
