<svg width="36" height="45" viewBox="0 0 36 45" fill="none" xmlns="http://www.w3.org/2000/svg">
<path fill-rule="evenodd" clip-rule="evenodd" d="M17.64 0.599609C18.8578 0.599609 19.845 1.57361 19.845 2.7751V25.8044L24.9008 20.8162C25.7619 19.9666 27.1581 19.9666 28.0192 20.8162C28.8803 21.6658 28.8803 23.0432 28.0192 23.8928L19.1992 32.5948C18.3381 33.4444 16.9419 33.4444 16.0808 32.5948L7.26083 23.8928C6.39972 23.0432 6.39972 21.6658 7.26083 20.8162C8.12194 19.9666 9.51806 19.9666 10.3792 20.8162L15.435 25.8044V2.7751C15.435 1.57361 16.4222 0.599609 17.64 0.599609ZM2.205 33.232C3.42279 33.232 4.41 34.206 4.41 35.4074V39.7584H30.87V35.4074C30.87 34.206 31.8572 33.232 33.075 33.232C34.2928 33.232 35.28 34.206 35.28 35.4074V39.7584C35.28 42.1614 33.3056 44.1094 30.87 44.1094H4.41C1.97442 44.1094 0 42.1614 0 39.7584V35.4074C0 34.206 0.987212 33.232 2.205 33.232Z" fill="white"/>
</svg>
