<svg width="70" height="71" viewBox="0 0 70 71" fill="none" xmlns="http://www.w3.org/2000/svg">
<path fill-rule="evenodd" clip-rule="evenodd" d="M37.2325 29.6492L50.4196 16.4621L54.1082 20.1507L40.9211 33.3378L35.8308 34.7395L37.2325 29.6492ZM55.3934 11.4883L59.082 15.1769L62.907 11.352C62.9355 11.2567 62.9599 11.1432 62.965 11.0233C62.97 10.9052 62.9606 10.7283 62.854 10.4604C62.745 10.1869 62.4617 9.63708 61.6975 8.87284C60.9332 8.10859 60.3834 7.82529 60.1099 7.71635C59.842 7.60967 59.6651 7.60029 59.547 7.6053C59.4272 7.61038 59.3136 7.63479 59.2183 7.66333L55.3934 11.4883ZM54.7725 2.16163C54.8868 2.04734 55.0052 1.94298 55.1411 1.8554C56.1831 1.1838 61.2106 -1.56164 66.6713 3.89905C72.1319 9.35975 69.3865 14.3872 68.7149 15.4292C68.6273 15.5651 68.523 15.6836 68.4087 15.7979L45.2378 38.9688C44.807 39.3995 44.2718 39.711 43.6846 39.8727L31.7304 43.1644C29.0993 43.8889 26.6814 41.471 27.4059 38.8399L30.6976 26.8858C30.8593 26.2985 31.1708 25.7633 31.6015 25.3326L54.7725 2.16163ZM3.51699 8.99157C1.57461 8.99157 0 10.5662 0 12.5086V66.5052C0 68.4476 1.57461 70.0222 3.51699 70.0222H61.3706C63.313 70.0222 64.8876 68.4476 64.8876 66.5052V43.3638C64.8876 41.4214 63.313 39.8468 61.3706 39.8468C59.4282 39.8468 57.8536 41.4214 57.8536 43.3638V62.9882H7.03399V16.0256H28.5869C30.5293 16.0256 32.1039 14.4509 32.1039 12.5086C32.1039 10.5662 30.5293 8.99157 28.5869 8.99157H3.51699Z" fill="#5FB871"/>
</svg>
