<svg width="80" height="75" viewBox="0 0 80 75" fill="none" xmlns="http://www.w3.org/2000/svg">
<g clip-path="url(#clip0_511:3784)">
<path d="M42.9688 75.0047H41.875C41.3484 74.8844 40.8266 74.7438 40.2953 74.6453C27.8568 72.3078 15.4146 69.9797 2.96875 67.6609C1.62813 67.4125 0.548437 66.9484 0 65.6297V9.37969C0.485937 8.45938 1.09377 7.71719 2.21252 7.50469C13.6594 5.37344 25.1042 3.23176 36.5469 1.07967C38.3281 0.745299 40.1 0.360937 41.875 0H43.125C44.5859 0.625 45.0813 1.75158 45.0188 3.30002C44.9406 5.27189 45 7.25001 45 9.22657V10.0047H46.05C56.2672 10.0047 66.4859 10.0235 76.7031 9.9844C78.2469 9.9844 79.375 10.4219 80 11.8797V63.1297C79.3906 64.5531 78.3078 65.0312 76.7797 65.025C66.4953 64.9859 56.2125 65.0047 45.9281 65.0047H45C45 67.3625 44.9484 69.6016 45.0172 71.836C45.0656 73.4172 44.4859 74.4875 42.9688 75.0047ZM74.9625 15.061H45.0391V20.0047H45.836C48.0485 20.0047 50.2625 19.9844 52.475 20.0156C53.914 20.0344 54.975 21.1094 54.9937 22.4703C55.0125 23.8313 53.9578 24.9328 52.5468 24.9969C52.0531 25.0187 51.5578 25.0047 51.0625 25.0047H45.05V30.0047C47.4906 30.0047 49.8828 29.9969 52.2734 30.0047C53.8765 30.0125 54.9937 31.05 54.9937 32.5047C54.9937 33.9594 53.8781 34.9953 52.2813 35.0047C50.1453 35.0156 48.0094 35.0047 45.875 35.0047H45.061V40.0047C47.4906 40.0047 49.8593 40.0047 52.2281 40.0047C53.8828 40.0047 55.0125 41.0531 54.9937 42.5328C54.9766 43.9781 53.8594 44.9922 52.2485 44.9984C50.1125 45.0078 47.9781 44.9984 45.8422 44.9984H45.0453V49.9984H45.8547C47.9641 49.9984 50.0735 49.9984 52.1828 49.9984C53.8578 49.9984 54.986 51.0078 54.9953 52.4813C55.0047 53.9547 53.875 54.9812 52.2172 54.9953C50.3172 55.0031 48.4156 54.9953 46.5141 54.9953H45.0578V59.9562H74.9641L74.9625 15.061ZM23.3391 40.8641C23.5891 41.1375 23.7844 41.3437 23.9719 41.5562C26.1328 44.0234 28.2828 46.4984 30.4547 48.9547C31.5406 50.1844 33.0094 50.3437 34.1141 49.4C35.2516 48.4281 35.2937 46.9312 34.2 45.6609C33.164 44.4578 32.1109 43.2703 31.0656 42.075L26.4906 36.8391C26.6625 36.6063 26.7953 36.4156 26.9375 36.2328C29.3812 33.0901 31.826 29.9484 34.2719 26.8078C34.8281 26.0969 35.1625 25.3359 34.9234 24.4234C34.6609 23.4281 34.0093 22.7906 33.0093 22.5766C31.9297 22.3437 31.0766 22.7719 30.4156 23.6219L23.7063 32.2469C23.5235 32.4813 23.3266 32.7062 23.1156 32.9609C22.9062 32.7281 22.7672 32.5766 22.6297 32.4203C20.7776 30.3057 18.9271 28.1906 17.0781 26.075C16.3984 25.2938 15.5812 24.8485 14.5328 25.0594C12.6062 25.4438 11.8765 27.6563 13.1781 29.2C14.6062 30.8891 16.0844 32.536 17.5391 34.2C18.3536 35.1375 19.1672 36.0719 19.9797 37.0031C19.8047 37.2375 19.6844 37.4047 19.5578 37.5687C17.4516 40.2771 15.3438 42.9854 13.2344 45.6937C12.6985 46.3812 12.3562 47.1156 12.5625 48.0031C12.7953 49.0047 13.4234 49.6406 14.4234 49.8953C15.5484 50.1813 16.4125 49.7391 17.0922 48.8797C18.6328 46.9141 20.1594 44.9375 21.6922 42.9656L23.3391 40.8641Z" fill="white"/>
<path d="M65.0173 25.0065C64.186 25.0065 63.3532 25.0268 62.5173 25.0065C61.0892 24.9659 60.0173 23.9127 60.0033 22.5518C59.9814 21.158 61.0548 20.0518 62.522 20.0221C64.1861 19.9924 65.8516 19.9877 67.5141 20.0221C67.8409 20.0207 68.1647 20.0839 68.4668 20.2082C68.769 20.3325 69.0435 20.5155 69.2746 20.7464C69.5057 20.9774 69.6888 21.2518 69.8133 21.5539C69.9378 21.856 70.0013 22.1797 70.0001 22.5065C70.0001 23.869 68.9376 24.9487 67.5204 24.9955C66.6829 25.0252 65.8501 25.0065 65.0173 25.0065Z" fill="white"/>
<path d="M65.0001 29.9951C65.8064 29.9951 66.6126 29.9795 67.4189 29.9951C68.9001 30.0326 69.9814 31.0889 69.9876 32.4779C69.9939 33.867 68.9142 34.9607 67.4454 34.9779C65.8079 35.0029 64.1694 35.0029 62.5298 34.9779C61.0673 34.9545 59.9861 33.8545 60.0001 32.4623C60.0126 31.1014 61.072 30.0405 62.5001 29.9936C63.3408 29.9764 64.1736 29.9951 65.0001 29.9951Z" fill="white"/>
<path d="M65.0003 39.9977C65.8331 39.9977 66.6659 39.9743 67.5003 39.9977C68.93 40.0462 69.9878 41.1102 70.0003 42.4727C70.0113 43.8634 68.93 44.9587 67.4644 44.9821C65.8269 45.0071 64.1883 45.0071 62.5487 44.9821C61.0831 44.9587 60.0018 43.8649 60.0128 42.4727C60.0222 41.1102 61.08 40.0462 62.5128 39.9977C63.3347 39.9774 64.1675 39.9977 65.0003 39.9977Z" fill="white"/>
<path d="M65.0002 55.0002C64.1674 55.0002 63.3346 55.0206 62.5002 55.0002C61.0767 54.958 60.0142 53.8908 60.0002 52.5299C59.9963 52.2041 60.0569 51.8806 60.1785 51.5783C60.3001 51.276 60.4803 51.0007 60.7087 50.7683C60.9372 50.536 61.2094 50.3511 61.5096 50.2243C61.8098 50.0976 62.1321 50.0315 62.458 50.0299C64.1465 49.9913 65.8372 49.9913 67.5299 50.0299C67.8557 50.0315 68.1781 50.0976 68.4783 50.2243C68.7785 50.3511 69.0507 50.536 69.2791 50.7683C69.5076 51.0007 69.6878 51.276 69.8094 51.5783C69.931 51.8806 69.9916 52.2041 69.9877 52.5299C69.9767 53.8908 68.9142 54.958 67.4877 55.0002C66.6658 55.0174 65.833 55.0002 65.0002 55.0002Z" fill="white"/>
</g>
<defs>
<clipPath id="clip0_511:3784">
<rect width="80" height="75" fill="white"/>
</clipPath>
</defs>
</svg>
