<svg width="100" height="103" viewBox="0 0 100 103" fill="none" xmlns="http://www.w3.org/2000/svg">
<g clip-path="url(#clip0_311_2483)">
<path d="M14.172 0H85.828C89.5834 0.0105047 93.182 1.50699 95.8375 4.16248C98.493 6.81797 99.9895 10.4166 100 14.172V87.8981C99.9895 91.6535 98.493 95.2521 95.8375 97.9076C93.182 100.563 89.5834 102.06 85.828 102.07H14.172C10.4166 102.06 6.81797 100.563 4.16248 97.9076C1.50699 95.2521 0.0105047 91.6535 0 87.8981V14.0127C0 6.36943 6.36943 0 14.172 0Z" fill="#4A566E"/>
<path d="M46.1783 66.7176L25.3185 45.6985L0 71.0169V87.8959C0.0105047 91.6513 1.50699 95.2499 4.16248 97.9054C6.81797 100.561 10.4166 102.057 14.172 102.068H85.828C89.5834 102.057 93.182 100.561 95.8375 97.9054C98.493 95.2499 99.9895 91.6513 100 87.8959V60.6666L76.2739 36.7812L46.1783 66.7176Z" fill="#00B594"/>
<path d="M45.7024 42.6738C50.6272 42.6738 54.6196 38.6814 54.6196 33.7566C54.6196 28.8317 50.6272 24.8394 45.7024 24.8394C40.7775 24.8394 36.7852 28.8317 36.7852 33.7566C36.7852 38.6814 40.7775 42.6738 45.7024 42.6738Z" fill="#FFCC03"/>
</g>
<defs>
<clipPath id="clip0_311_2483">
<rect width="100" height="102.07" fill="white"/>
</clipPath>
</defs>
</svg>
