<svg width="60" height="50" viewBox="0 0 60 50" fill="none" xmlns="http://www.w3.org/2000/svg">
<path d="M2.05339 49.2814H47.228L49.1992 47.7619L60 19.0144L58.0288 16.4271H53.3881V6.16017L51.3348 4.10678H27.5563L24.0246 0.616117L22.5873 0H2.05339L0 2.05339V47.228L2.05339 49.2814ZM4.10678 4.10678H21.725L25.2568 7.59744L26.6941 8.21356H49.2814V16.4271H30.8009L29.3636 17.0432L25.8318 20.5339H10.267L8.33688 21.9301L4.2301 34.5793L4.10678 4.10678ZM45.7085 45.1746H4.88683L11.7453 24.6407H26.6941L28.1313 24.0246L31.6631 20.5339H55.4415L45.7085 45.1746Z" fill="white"/>
</svg>
