<svg width="50" height="49" viewBox="0 0 50 49" fill="none" xmlns="http://www.w3.org/2000/svg">
<path d="M45.7803 4.21975C47.1176 5.54943 48.1788 7.13036 48.903 8.87164C49.6272 10.6129 50 12.4802 50 14.366C50 16.2519 49.6272 18.1191 48.903 19.8604C48.1788 21.6017 47.1176 23.1826 45.7803 24.5123C41.4462 28.8464 35.0169 29.7935 29.7356 27.4112L24.3683 36.9117L15.7863 37.8015L11.4809 48.4788H2.87024L0 42.7383L22.8184 20.6662C20.1778 15.2989 21.0388 8.66861 25.4877 4.21975C26.8174 2.88243 28.3983 1.82117 30.1396 1.09699C31.8809 0.37281 33.7481 0 35.634 0C37.5198 0 39.3871 0.37281 41.1284 1.09699C42.8696 1.82117 44.4506 2.88243 45.7803 4.21975ZM38.576 15.0979C40.6999 15.0979 42.3934 13.3758 42.3934 11.2518C42.3934 10.2394 41.9912 9.26841 41.2753 8.55251C40.5594 7.8366 39.5884 7.43441 38.576 7.43441C37.5635 7.43441 36.5925 7.8366 35.8766 8.55251C35.1607 9.26841 34.7585 10.2394 34.7585 11.2518C34.7585 13.3758 36.4807 15.0979 38.576 15.0979Z" fill="#0171BB"/>
</svg>
