<svg width="100" height="100" viewBox="0 0 100 100" fill="none" xmlns="http://www.w3.org/2000/svg">
<g clip-path="url(#clip0_311:487)">
<path d="M100 84.3369C100 88.491 98.3498 92.475 95.4124 95.4124C92.475 98.3498 88.491 100 84.3369 100H15.6631C11.509 100 7.52501 98.3498 4.5876 95.4124C1.6502 92.475 0 88.491 0 84.3369V20.3463L20.3463 0H84.3369C88.4842 -1.30909e-05 92.4622 1.6448 95.3985 4.5737C98.3348 7.5026 99.9896 11.4765 100 15.6238V84.3369Z" fill="#E24C3F"/>
<path opacity="0.2" d="M0 31.2469V20.3457H10.8619L0 31.2469Z" fill="#5D5D5D"/>
<path d="M0 20.3463H13.5773C15.3658 20.3463 17.0816 19.6386 18.3499 18.3777C19.6182 17.1167 20.3359 15.4051 20.3463 13.6167V0L0 20.3463Z" fill="#FF7063"/>
<path d="M19.1289 69.2237V36.4808H35.343C36.7438 36.4515 38.1359 36.7059 39.4359 37.2285C40.5573 37.7052 41.5637 38.4164 42.3875 39.3143C43.1952 40.2619 43.8102 41.3581 44.1978 42.5414C44.6061 43.8667 44.8052 45.2476 44.7881 46.6342C44.8017 48.0724 44.6028 49.5046 44.1978 50.8845C43.863 52.1331 43.2734 53.2988 42.4662 54.3084C41.6721 55.2873 40.6618 56.0687 39.5146 56.5909C38.1921 57.1344 36.7726 57.4022 35.343 57.378H24.4418V69.2237H19.1289ZM24.4418 41.3607V52.4194H33.4933C35.5791 52.4194 37.0746 51.9471 38.0191 51.0026C38.9636 50.0581 39.4752 48.6413 39.4752 46.6342C39.4752 44.6272 38.9636 43.4072 37.9404 42.6201C36.9172 41.833 35.4217 41.3607 33.4933 41.3607H24.4418Z" fill="white"/>
<path d="M63.9935 37.3091L69.1096 35.9316V63.7947C69.1096 64.385 69.1489 64.936 69.1883 65.4083L69.4244 66.7463C69.5818 67.1005 69.6999 67.4941 69.8573 67.927C70.0186 68.3818 70.2297 68.8173 70.487 69.2257H65.056C64.8362 68.8227 64.6518 68.4013 64.5051 67.9663C64.3854 67.4601 64.2934 66.9477 64.2296 66.4315C63.2669 67.3734 62.1814 68.1809 61.0025 68.8321C59.7993 69.4574 58.4624 69.7816 57.1064 69.7766C55.6243 69.8192 54.1497 69.5511 52.7774 68.9895C51.5947 68.4871 50.5342 67.7354 49.6684 66.7857C48.7936 65.8065 48.1364 64.653 47.7401 63.4012C47.3054 62.0404 47.0928 60.6186 47.1104 59.1902V56.9077C47.1104 52.9328 48.173 49.9419 50.2587 47.9348C52.3445 45.9277 55.4142 44.9045 59.4677 44.9045C61.0201 44.9155 62.5562 45.2227 63.9935 45.8097V37.3091ZM63.9935 50.5716C63.2558 50.1325 62.441 49.8386 61.5929 49.7058C60.7617 49.5545 59.919 49.4755 59.0742 49.4696C57.9899 49.4536 56.9112 49.6267 55.8865 49.9812C55.0784 50.2976 54.3572 50.8016 53.7824 51.4516C53.2076 52.1017 52.7957 52.8792 52.5807 53.7199C52.3372 54.6579 52.2181 55.6238 52.2265 56.5928V58.3244C52.2303 59.1938 52.296 60.0618 52.4232 60.9218C52.5345 61.6838 52.7882 62.4181 53.171 63.0863C53.5283 63.7058 54.0273 64.2318 54.6271 64.6212C55.3823 65.0453 56.2411 65.2498 57.1064 65.2115C57.7616 65.2063 58.412 65.1001 59.0348 64.8967C59.692 64.6724 60.3249 64.3823 60.9238 64.0309C61.4976 63.6561 62.0495 63.2488 62.5767 62.8109C63.0775 62.382 63.5507 61.9219 63.9935 61.4334V50.5716Z" fill="white"/>
<path d="M75.6391 42.8555C75.6353 41.9774 75.7546 41.1031 75.9933 40.2581C76.2207 39.4538 76.609 38.7041 77.1346 38.0542C77.6536 37.3782 78.3288 36.838 79.1023 36.48C80.0247 36.0975 81.0162 35.91 82.0145 35.9291C82.6215 35.9277 83.2273 35.9804 83.8249 36.0865C84.4226 36.182 85.0139 36.3134 85.5958 36.48V40.5335H83.7068C83.3108 40.5034 82.9129 40.558 82.5397 40.6937C82.1664 40.8294 81.8264 41.0431 81.5423 41.3206C81.0171 41.9307 80.7491 42.7208 80.7946 43.5245V45.4922H85.3597L83.9823 49.7031H80.7946V69.223H75.6391V49.7031H72.6875V45.4922H75.6391V42.8555Z" fill="white"/>
</g>
<defs>
<clipPath id="clip0_311:487">
<rect width="100" height="100" fill="white"/>
</clipPath>
</defs>
</svg>
