<svg width="58" height="61" viewBox="0 0 58 61" fill="none" xmlns="http://www.w3.org/2000/svg">
<path d="M24.3346 34.3897L25.0443 42.5462L15.3767 43.3967C19.0372 46.9442 24.0158 49.1259 29.5012 49.1259C40.7437 49.1259 49.8575 39.9615 49.8575 28.6568C49.8575 17.352 40.7437 8.18765 29.5012 8.18765C22.0884 8.18765 15.601 12.1719 12.0414 18.1269L3.88786 16.0772C8.52108 6.5565 18.2497 3.8147e-06 29.5012 3.8147e-06C45.2407 3.8147e-06 58 12.8301 58 28.6568C58 44.4835 45.2407 57.3135 29.5012 57.3135C21.5767 57.3135 14.4077 54.0612 9.24216 48.8117L10.2405 60.2864L2.12901 61L0 36.5305L24.3346 34.3897Z" fill="#09B62F"/>
</svg>
