<svg width="220" height="220" viewBox="0 0 220 220" fill="none" xmlns="http://www.w3.org/2000/svg">
<path d="M110 0C49.2456 0 0 49.2456 0 110C0 170.754 49.2456 220 110 220C170.748 220 220 170.748 220 110C220 49.2456 170.748 0 110 0ZM110 206.25C56.8427 206.25 13.7502 163.157 13.7502 110C13.7502 56.8427 56.8427 13.7502 110 13.7502C163.157 13.7502 206.25 56.8427 206.25 110C206.25 163.157 163.157 206.25 110 206.25Z" fill="#09B62F"/>
<path d="M146.723 72.0078L98.3416 120.388L72.7222 94.7698L58.9272 108.565L98.3416 147.979L160.518 85.8027L146.723 72.0078Z" fill="#09B62F"/>
</svg>
