<svg width="48" height="60" viewBox="0 0 48 60" fill="none" xmlns="http://www.w3.org/2000/svg">
<path fill-rule="evenodd" clip-rule="evenodd" d="M24 0C25.6569 0 27 1.32517 27 2.95985V34.2922L33.8787 27.5056C35.0503 26.3497 36.9497 26.3497 38.1213 27.5056C39.2929 28.6615 39.2929 30.5355 38.1213 31.6914L26.1213 43.5308C24.9497 44.6867 23.0503 44.6867 21.8787 43.5308L9.87868 31.6914C8.70711 30.5355 8.70711 28.6615 9.87868 27.5056C11.0503 26.3497 12.9497 26.3497 14.1213 27.5056L21 34.2922V2.95985C21 1.32517 22.3431 0 24 0ZM3 44.3978C4.65685 44.3978 6 45.7229 6 47.3576V53.2773H42V47.3576C42 45.7229 43.3431 44.3978 45 44.3978C46.6569 44.3978 48 45.7229 48 47.3576V53.2773C48 56.5467 45.3137 59.197 42 59.197H6C2.68629 59.197 0 56.5467 0 53.2773V47.3576C0 45.7229 1.34315 44.3978 3 44.3978Z" fill="white"/>
</svg>
