<svg width="50" height="50" viewBox="0 0 50 50" fill="none" xmlns="http://www.w3.org/2000/svg">
<path fill-rule="evenodd" clip-rule="evenodd" d="M12.5 5C12.5 2.23858 14.7386 0 17.5 0H32.5C35.2614 0 37.5 2.23858 37.5 5V10H42.4742C42.4897 9.99986 42.5051 9.99986 42.5206 10H47.5C48.8807 10 50 11.1193 50 12.5C50 13.8807 48.8807 15 47.5 15H44.8278L42.6595 45.3562C42.4726 47.9728 40.2954 50 37.6722 50H12.3278C9.7046 50 7.5274 47.9728 7.3405 45.3562L5.1722 15H2.5C1.11929 15 0 13.8807 0 12.5C0 11.1193 1.11929 10 2.5 10H7.47936C7.49487 9.99986 7.51035 9.99986 7.5258 10H12.5V5ZM17.5 10H32.5V5H17.5V10ZM10.1849 15L12.3278 45H37.6722L39.8151 15H10.1849ZM20 20C21.3807 20 22.5 21.1193 22.5 22.5V37.5C22.5 38.8807 21.3807 40 20 40C18.6193 40 17.5 38.8807 17.5 37.5V22.5C17.5 21.1193 18.6193 20 20 20ZM30 20C31.3807 20 32.5 21.1193 32.5 22.5V37.5C32.5 38.8807 31.3807 40 30 40C28.6193 40 27.5 38.8807 27.5 37.5V22.5C27.5 21.1193 28.6193 20 30 20Z" fill="#FE6D00"/>
</svg>
