<svg width="66" height="52" viewBox="0 0 66 52" fill="none" xmlns="http://www.w3.org/2000/svg">
<g clip-path="url(#clip0_511_3772)">
<path d="M34.5647 0.00390625C35.7652 0.211961 36.976 0.368313 38.1623 0.637105C42.1156 1.5503 45.7495 3.51243 48.6816 6.31693C51.6137 9.12144 53.7354 12.6646 54.8235 16.5734C54.9437 17.0114 55.1621 17.2311 55.6131 17.363C61.1272 18.9718 65.278 23.7752 65.8944 29.2259C66.5909 35.3784 63.8164 40.9184 58.5504 43.8415C56.4554 45.0069 54.0988 45.6214 51.7014 45.6274C49.0587 45.6507 46.4147 45.6352 43.7707 45.6339C43.6661 45.6339 43.5614 45.6158 43.4115 45.6029V41.5103H44.1339C46.5892 41.5103 49.0341 41.5232 51.4843 41.5103C57.4429 41.4728 61.9762 36.8361 61.8922 30.8775C61.8263 26.2434 58.2868 21.9725 53.7135 21.157C52.1808 20.8844 51.4637 20.1116 51.0734 18.6306C49.0562 10.9908 44.0951 6.28563 36.3958 4.70261C27.7027 2.9154 18.7628 8.08186 15.6988 16.4041C15.0119 18.2114 14.6227 20.1181 14.5461 22.05C14.5371 22.3291 14.5086 22.6083 14.4841 22.8861C14.3626 24.2766 13.6363 24.9537 12.2433 25.0222C9.178 25.167 6.81577 26.5406 5.27151 29.1911C2.1817 34.4803 5.95385 41.319 12.0792 41.487C15.3435 41.5774 18.6129 41.509 21.8797 41.5128H22.6887V45.6378H22.0425C18.9256 45.6378 15.81 45.6378 12.693 45.6378C6.35187 45.6248 1.458 41.6201 0.195451 35.4198C0.128253 35.089 0.0662214 34.7569 -0.000976562 34.4261V32.1064C0.0348994 32.0547 0.0632361 31.9982 0.0830713 31.9384C0.975598 26.156 4.2631 22.5626 9.94564 21.1583C10.3333 21.064 10.4044 20.856 10.4354 20.5303C10.8267 16.0934 12.5502 11.8785 15.3796 8.43854C18.6762 4.38857 22.8826 1.75363 27.9935 0.613853C29.1811 0.348938 30.3958 0.206796 31.5976 0.00778684L34.5647 0.00390625Z" fill="white"/>
<path d="M39.7242 36.754L35.1302 32.1587V51.7831H31.004V32.107L26.4178 36.7903L23.4287 33.8038C26.1425 31.0836 28.8718 28.3181 31.6385 25.5863C32.4527 24.7825 33.626 24.7683 34.4311 25.5591C37.1875 28.2729 39.9091 31.0164 42.6409 33.7508C42.6582 33.769 42.6679 33.793 42.6681 33.818L39.7242 36.754Z" fill="white"/>
</g>
<defs>
<clipPath id="clip0_511_3772">
<rect width="66" height="51.7838" fill="white"/>
</clipPath>
</defs>
</svg>
