<svg width="50" height="66" viewBox="0 0 50 66" fill="none" xmlns="http://www.w3.org/2000/svg">
<g clip-path="url(#clip0_482_686)">
<path d="M49.9927 0V3.84833H46.1662C46.0261 5.16582 45.9194 6.41903 45.7536 7.66839C45.2395 11.5643 44.0402 15.225 41.958 18.5797C40.3628 21.1504 38.2767 23.2789 36.0968 25.3381C34.7472 26.6144 33.3976 27.8998 32.1585 29.2789C31.0248 30.5399 30.5569 32.0772 30.8731 33.7957C31.1199 35.1311 31.8436 36.2108 32.7703 37.144C34.0338 38.4178 35.3256 39.6671 36.6598 40.8715C42.1109 45.7751 45.2099 51.8561 45.8988 59.162C45.9811 60.045 46.0621 60.9281 46.1469 61.8381H49.9927V65.6864H-0.00732422V61.8047H3.82172C3.96054 60.5116 4.07108 59.2777 4.22918 58.0515C4.63656 54.6987 5.65556 51.4491 7.2356 48.4641C8.95025 45.2507 11.4053 42.6504 14.0479 40.1954C15.3603 38.9756 16.6495 37.7211 17.8423 36.3856C18.3761 35.8123 18.7711 35.1241 18.9968 34.3739C19.2226 33.6238 19.2731 32.8319 19.1443 32.0592C18.931 30.662 18.2035 29.5412 17.2497 28.5746C15.9644 27.2678 14.6362 25.997 13.2652 24.7622C8.38085 20.3278 5.29601 14.9139 4.32815 8.35219C4.11092 6.8779 3.98368 5.39589 3.81401 3.85347H0.0415196V0H49.9927ZM42.2035 3.87918H7.84743C7.82172 3.94859 7.79345 3.98587 7.79473 4.02314C7.87289 6.90593 8.40647 9.75822 9.37571 12.4743C9.43483 12.6388 9.7369 12.8085 9.9297 12.8149C10.976 12.8483 12.0235 12.8316 13.0698 12.8316C22.0004 12.8316 30.931 12.8355 39.8616 12.8432C40.3461 12.8432 40.5929 12.7288 40.7125 12.2404C40.8937 11.4974 41.1688 10.7764 41.3551 10.0334C41.8689 8.02039 42.1552 5.95606 42.2086 3.87918H42.2035ZM9.59421 52.6466C11.6289 51.8034 13.5312 51.0026 15.4438 50.2263C17.7922 49.2725 20.1392 48.3111 22.5132 47.4178C22.9682 47.2468 23.0903 47.0797 23.0891 46.6299C23.0736 42.6748 23.0801 38.7198 23.0788 34.7635C23.0788 34.59 23.0595 34.4152 23.0492 34.2404C22.6199 36.4692 21.5068 38.315 19.949 39.8895C18.4772 41.3767 16.9335 42.7944 15.4207 44.2417C12.94 46.6144 10.9001 49.2918 9.59421 52.6466ZM26.9181 34.2314V46.2057C26.9181 47.1954 26.9181 47.1941 27.8873 47.5039C28.0492 47.5566 28.2086 47.6183 28.3667 47.6839L39.7754 52.3831C39.9541 52.4563 40.1353 52.5258 40.3988 52.6312C39.4914 50.3175 38.3346 48.2867 36.7395 46.5733C34.9515 44.6517 33.0389 42.8458 31.1469 41.0219C29.17 39.1131 27.4682 37.0463 26.9181 34.2314Z" fill="#FD6D00"/>
</g>
<defs>
<clipPath id="clip0_482_686">
<rect width="50" height="65.6812" fill="white"/>
</clipPath>
</defs>
</svg>
