<svg width="112" height="34" viewBox="0 0 112 34" fill="none" xmlns="http://www.w3.org/2000/svg">
<g clip-path="url(#clip0_2871_163)">
<path d="M49.3188 29.1719C47.5727 29.1954 45.8397 28.8654 44.2217 28.2012C42.7436 27.5897 41.4006 26.6866 40.2713 25.5446C39.1827 24.4348 38.324 23.1165 37.7455 21.6669C36.5545 18.6379 36.5672 15.2606 37.7808 12.2409C38.3628 10.7991 39.2212 9.48816 40.3067 8.38362C41.4197 7.27041 42.7378 6.38867 44.1863 5.78828C45.7442 5.13722 47.416 4.81054 49.1016 4.8278C50.2941 4.81907 51.4827 4.96676 52.6377 5.26717C53.6972 5.54801 54.7161 5.96706 55.6687 6.51375C56.582 7.04204 57.4213 7.69153 58.1642 8.44493C58.8401 9.12703 59.4305 9.89058 59.9222 10.7184C59.9354 10.7411 59.944 10.7662 59.9474 10.7923C59.9507 10.8184 59.9488 10.8449 59.9417 10.8702C59.9346 10.8956 59.9225 10.9192 59.9062 10.9396C59.8898 10.9601 59.8694 10.9769 59.8464 10.9892L56.2345 12.9766C56.192 12.999 56.1427 13.0041 56.0966 12.9908C56.0505 12.9775 56.0113 12.9468 55.987 12.905C55.3175 11.7731 54.3688 10.8366 53.2338 10.1871C51.9756 9.51165 50.5659 9.17723 49.142 9.21638C48.0751 9.20721 47.0178 9.41934 46.0352 9.83967C45.1087 10.2408 44.2628 10.8105 43.5397 11.5205C42.8285 12.2227 42.2634 13.0617 41.8777 13.9881C41.4811 14.9403 41.28 15.9641 41.2867 16.9973C41.2745 18.0492 41.4757 19.0924 41.8777 20.0627C42.2622 20.9883 42.8275 21.8258 43.5397 22.5252C44.2659 23.2419 45.1241 23.8078 46.0655 24.1907C47.09 24.6051 48.1851 24.8116 49.2885 24.7986C50.8232 24.8746 52.3378 24.421 53.5842 23.5123C54.8306 22.6035 55.7348 21.2935 56.1486 19.797C56.1572 19.7681 56.1591 19.7377 56.1541 19.708C56.149 19.6782 56.1372 19.6501 56.1196 19.6258C56.1019 19.6016 56.0789 19.5818 56.0524 19.568C56.0259 19.5543 55.9965 19.547 55.9667 19.5467H53.8046C53.7551 19.5467 53.7075 19.5267 53.6725 19.4913C53.6374 19.4558 53.6177 19.4078 53.6177 19.3576V15.4186C53.6171 15.3934 53.6214 15.3683 53.6305 15.3447C53.6396 15.3212 53.6532 15.2998 53.6707 15.2817C53.6881 15.2636 53.7089 15.2492 53.7319 15.2394C53.7549 15.2295 53.7797 15.2245 53.8046 15.2245H60.8315C60.8824 15.2245 60.9312 15.2449 60.9672 15.2814C61.0032 15.3178 61.0234 15.3671 61.0234 15.4186V17.0228C61.0296 18.6169 60.7507 20.1988 60.2 21.6924C59.6771 23.1273 58.8788 24.4434 57.851 25.565C56.8077 26.6892 55.5497 27.5878 54.1532 28.2063C52.6269 28.8687 50.9795 29.1977 49.3188 29.1719Z" fill="#5B758D"/>
<path d="M72.2283 29.172C69.8298 29.1688 67.5194 28.2575 65.7521 26.6175C64.8313 25.7553 64.0939 24.7123 63.5849 23.5522C63.0173 22.2584 62.7362 20.8547 62.7615 19.4395C62.735 18.013 63.0088 16.5972 63.5647 15.2859C64.0691 14.131 64.7954 13.089 65.7016 12.2205C66.5808 11.3934 67.6101 10.7463 68.7326 10.3149C69.8628 9.8836 71.0607 9.66208 72.2687 9.66096C73.4821 9.64451 74.6858 9.88103 75.8049 10.3558C76.6779 10.7232 77.4748 11.2536 78.1539 11.9191C78.1805 11.9438 78.2137 11.9602 78.2494 11.9662C78.285 11.9722 78.3217 11.9677 78.3548 11.9531C78.388 11.9385 78.4162 11.9145 78.4361 11.884C78.4561 11.8534 78.4668 11.8177 78.4671 11.7812V9.88575C78.471 9.83607 78.4936 9.7898 78.5302 9.75651C78.5669 9.72322 78.6148 9.70547 78.6641 9.70694H82.7054C82.7304 9.70693 82.7551 9.71198 82.7781 9.7218C82.8012 9.73161 82.822 9.746 82.8394 9.76409C82.8568 9.78219 82.8705 9.80364 82.8796 9.82717C82.8887 9.8507 82.893 9.87583 82.8923 9.90108V28.9625C82.893 28.9878 82.8887 29.0129 82.8796 29.0364C82.8705 29.06 82.8568 29.0814 82.8394 29.0995C82.822 29.1176 82.8012 29.132 82.7781 29.1418C82.7551 29.1516 82.7304 29.1567 82.7054 29.1567H78.6641C78.6141 29.1553 78.5665 29.1343 78.5316 29.098C78.4967 29.0618 78.4772 29.0132 78.4772 28.9625V26.919C78.4769 26.8818 78.4657 26.8456 78.4452 26.8148C78.4246 26.784 78.3955 26.76 78.3616 26.7459C78.3276 26.7317 78.2903 26.728 78.2543 26.7351C78.2182 26.7423 78.1851 26.76 78.1589 26.7861C77.4847 27.4991 76.6778 28.0703 75.7847 28.467C74.6621 28.9544 73.4498 29.1947 72.2283 29.172ZM72.9507 25.0491C73.7377 25.0589 74.5188 24.9114 75.2492 24.6148C75.9285 24.3377 76.5441 23.9221 77.0577 23.3938C77.5638 22.8699 77.9713 22.257 78.26 21.5852C78.5577 20.885 78.7091 20.1301 78.7045 19.3679C78.7065 18.6159 78.5552 17.8716 78.26 17.1813C77.9735 16.5128 77.5657 15.9046 77.0577 15.3881C76.5405 14.8694 75.9255 14.4611 75.2492 14.1875C73.7768 13.6018 72.1397 13.6018 70.6673 14.1875C69.9798 14.4615 69.3492 14.8635 68.8083 15.3728C68.2828 15.875 67.8635 16.4798 67.5757 17.1507C67.2786 17.851 67.1272 18.6058 67.1312 19.3679C67.1272 20.135 67.2785 20.8948 67.5757 21.6005C67.8616 22.2814 68.2809 22.8966 68.8083 23.4091C69.3457 23.928 69.9769 24.3374 70.6673 24.6148C71.3944 24.9029 72.1699 25.0452 72.9507 25.0338V25.0491Z" fill="#5B758D"/>
<path d="M85.6304 15.6128H89.7223C89.7719 15.6128 89.8194 15.6327 89.8544 15.6682C89.8895 15.7036 89.9092 15.7517 89.9092 15.8018V28.9471C89.9099 28.9724 89.9055 28.9975 89.8964 29.021C89.8873 29.0446 89.8737 29.066 89.8563 29.0841C89.8388 29.1022 89.818 29.1166 89.795 29.1264C89.772 29.1362 89.7473 29.1413 89.7223 29.1413H85.6304C85.5795 29.1413 85.5307 29.1208 85.4947 29.0844C85.4587 29.048 85.4385 28.9986 85.4385 28.9471V15.8018C85.4398 15.7512 85.4606 15.7031 85.4965 15.6678C85.5323 15.6325 85.5804 15.6128 85.6304 15.6128Z" fill="#5B758D"/>
<path d="M101.315 29.172C98.917 29.1688 96.6066 28.2575 94.8393 26.6176C93.9185 25.7553 93.1811 24.7123 92.6721 23.5522C92.1008 22.2506 91.8197 20.8378 91.8487 19.414C91.8213 17.9869 92.0969 16.5705 92.657 15.2604C93.1479 14.1227 93.8623 13.0977 94.7567 12.2476C95.6511 11.3975 96.7069 10.74 97.8602 10.3149C98.9901 9.88267 100.188 9.66111 101.396 9.661C102.61 9.64412 103.814 9.88065 104.932 10.3558C105.806 10.7233 106.602 11.2536 107.281 11.9192C107.308 11.9439 107.341 11.9602 107.377 11.9662C107.413 11.9723 107.449 11.9677 107.482 11.9531C107.516 11.9385 107.544 11.9145 107.564 11.884C107.584 11.8535 107.594 11.8178 107.595 11.7812V9.8858C107.595 9.83431 107.615 9.78492 107.651 9.74851C107.687 9.71211 107.736 9.69165 107.787 9.69165H111.828C111.879 9.69165 111.928 9.71211 111.964 9.74851C112 9.78492 112.02 9.83431 112.02 9.8858V28.9472C112.02 28.9987 112 29.0481 111.964 29.0845C111.928 29.1209 111.879 29.1414 111.828 29.1414H107.787C107.736 29.1414 107.687 29.1209 107.651 29.0845C107.615 29.0481 107.595 28.9987 107.595 28.9472V26.9037C107.594 26.8665 107.583 26.8303 107.563 26.7995C107.542 26.7687 107.513 26.7448 107.479 26.7306C107.445 26.7164 107.408 26.7127 107.372 26.7198C107.336 26.727 107.303 26.7447 107.276 26.7708C106.603 27.4849 105.796 28.0563 104.902 28.4517C103.772 28.9494 102.548 29.1951 101.315 29.172ZM102.038 25.0491C102.826 25.0586 103.609 24.911 104.341 24.6149C105.02 24.3365 105.635 23.921 106.15 23.3938C106.652 22.868 107.058 22.2555 107.347 21.5853C107.647 20.8858 107.799 20.1304 107.792 19.368C107.796 18.6157 107.645 17.8708 107.347 17.1814C107.061 16.5142 106.655 15.9062 106.15 15.3881C105.632 14.8706 105.017 14.4625 104.341 14.1875C102.867 13.6015 101.229 13.6015 99.7545 14.1875C99.067 14.4615 98.4364 14.8635 97.8955 15.3728C97.37 15.875 96.9507 16.4799 96.6629 17.1507C96.3673 17.8514 96.2177 18.6062 96.2234 19.368C96.2178 20.1347 96.3674 20.8945 96.6629 21.6006C96.9488 22.2814 97.3681 22.8967 97.8955 23.4092C98.4329 23.9281 99.0641 24.3374 99.7545 24.6149C100.482 24.9019 101.257 25.0442 102.038 25.0338V25.0491Z" fill="#5B758D"/>
<path d="M87.6814 14.2184C88.9201 14.2184 89.9243 13.2028 89.9243 11.95C89.9243 10.6972 88.9201 9.68164 87.6814 9.68164C86.4427 9.68164 85.4385 10.6972 85.4385 11.95C85.4385 13.2028 86.4427 14.2184 87.6814 14.2184Z" fill="#5B758D"/>
<path d="M16.8169 9.18686e-06C12.3905 -0.00464607 8.14164 1.76009 4.99609 4.9097C7.14304 6.53945 12.4826 6.7387 15.4631 8.34291C21.7777 11.7455 21.7271 18.8111 21.7271 18.8111C21.7271 18.8111 19.4539 12.1695 10.7701 10.7492C11.0126 10.7952 15.1853 11.5973 18.8528 16.3384C20.3678 18.3016 21.3123 20.6527 21.5806 23.1282C21.9556 26.7549 21.346 30.4164 19.8176 33.719C23.9331 32.9459 27.6154 30.6478 30.1443 27.2744C32.6731 23.9009 33.8667 19.6947 33.4915 15.4783C33.1162 11.262 31.1993 7.33892 28.1154 4.47632C25.0316 1.61372 21.0028 0.0175551 16.8169 9.18686e-06Z" fill="url(#paint0_linear_2871_163)"/>
<path d="M19.7316 19.4138C19.5838 19.0692 19.3591 18.764 19.0752 18.5221C18.7912 18.2801 18.4557 18.1079 18.0949 18.019C12.9877 16.7571 5.6527 19.1685 4.45546 5.47656C2.25785 7.88005 0.793264 10.8742 0.237697 14.0992C-0.317871 17.3242 0.0592242 20.6429 1.32366 23.6564C2.5881 26.6699 4.68608 29.25 7.3655 31.0867C10.0449 32.9234 13.1918 33.9385 16.4279 34.01C18.6354 30.7352 21.9443 24.5227 19.7316 19.4138Z" fill="url(#paint1_linear_2871_163)"/>
</g>
<defs>
<linearGradient id="paint0_linear_2871_163" x1="5.43913" y1="33.719" x2="34.0022" y2="33.719" gradientUnits="userSpaceOnUse">
<stop stop-color="#4555E0"/>
<stop offset="1" stop-color="#4577F7"/>
</linearGradient>
<linearGradient id="paint1_linear_2871_163" x1="0.30586" y1="34.01" x2="20.7803" y2="34.01" gradientUnits="userSpaceOnUse">
<stop stop-color="#4555E0"/>
<stop offset="1" stop-color="#4577F7"/>
</linearGradient>
<clipPath id="clip0_2871_163">
<rect width="112" height="34" fill="white"/>
</clipPath>
</defs>
</svg>
